<?xml version="1.0" encoding="utf-8"?>
<!-- Generator: Adobe Illustrator 20.1.0, SVG Export Plug-In . SVG Version: 6.00 Build 0)  -->
<svg version="1.1" id="Layer_1" xmlns="http://www.w3.org/2000/svg" xmlns:xlink="http://www.w3.org/1999/xlink" x="0px" y="0px"
	 viewBox="0 0 300 225" style="enable-background:new 0 0 300 225;" xml:space="preserve">
<style type="text/css">
	.st0{clip-path:url(#SVGID_2_);}
	.st1{clip-path:url(#SVGID_6_);}
	.st2{clip-path:url(#SVGID_7_);}
	.st3{clip-path:url(#SVGID_8_);fill:#C4A662;}
	.st4{clip-path:url(#SVGID_8_);}
	.st5{clip-path:url(#SVGID_8_);fill:#88271B;}
	.st6{font-family:'MyriadPro-Bold';}
	.st7{font-size:12px;}
	.st8{font-family:'MyriadPro-Regular';}
</style>
<g>
	<g>
		<g>
			<defs>
				<rect id="SVGID_1_" x="13.6" y="25" width="140.8" height="140.8"/>
			</defs>
			<clipPath id="SVGID_2_">
				<use xlink:href="#SVGID_1_"  style="overflow:visible;"/>
			</clipPath>
			<g class="st0">
				<g>
					<defs>
						<rect id="SVGID_3_" x="13.6" y="25" width="140.8" height="140.8"/>
					</defs>
					<defs>
						<rect id="SVGID_4_" x="13.6" y="25" width="140.8" height="140.8"/>
					</defs>
					<defs>
						<rect id="SVGID_5_" x="13.6" y="25" width="140.8" height="140.8"/>
					</defs>
					<clipPath id="SVGID_6_">
						<use xlink:href="#SVGID_3_"  style="overflow:visible;"/>
					</clipPath>
					<clipPath id="SVGID_7_" class="st1">
						<use xlink:href="#SVGID_4_"  style="overflow:visible;"/>
					</clipPath>
					<clipPath id="SVGID_8_" class="st2">
						<use xlink:href="#SVGID_5_"  style="overflow:visible;"/>
					</clipPath>
					<path class="st3" d="M96.3,103.8c7-4.8,15.2-7.3,23.7-7.3c11.2,0,21.8,4.4,29.7,12.3c1.8,1.8,3.4,3.8,4.9,5.8V25h-138l79,79.3
						L96.3,103.8z"/>
					<path class="st4" d="M154.4,163.4l-55.7-55.9c14.6-10,34.7-8.5,47.7,4.5c3.4,3.4,6.1,7.5,8,11.9V163.4z"/>
					<polygon class="st5" points="13.6,27.5 13.6,165.8 151.5,165.8 					"/>
				</g>
			</g>
		</g>
		<text transform="matrix(1 0 0 1 171 33.6665)" class="st6 st7">Craig Clark</text>
		<text transform="matrix(1 0 0 1 171 62.4665)" class="st8 st7">Wordpress Starter</text>
		<text transform="matrix(1 0 0 1 171 76.8665)" class="st8 st7">Theme</text>
	</g>
</g>
</svg>
