<svg xmlns="http://www.w3.org/2000/svg" width="1088" height="448" viewBox="0 0 1087.5 448"><style type="text/css">  
	.st0{fill:#FFFFFF;}
	.st1{fill:#FF0000;}
</style><circle class="st0" cx="851.1" cy="222.5" r="189.5"/><path class="st1" d="M151.9 10.1c-66.5 0-120.5 54-120.5 120.5 0 135.3 136.5 170.8 229.5 304.5 87.9-132.9 229.5-173.6 229.5-304.5 0-66.5-54-120.5-120.5-120.5 -48.2 0-89.8 28.5-109 69.5C241.7 38.5 200.1 10.1 151.9 10.1L151.9 10.1z"/><path class="st0" d="M192.3 169.3v2.3h-64.5v-2.3l30-59.5h5.4L192.3 169.3zM145.6 162h29v-1.4l-14-34.8h-0.7l-14.3 34.8V162z"/><path class="st0" d="M197.7 161.8h25.1c-0.7-2.1-1.2-4.2-1.5-6.4s-0.4-4.6-0.4-7.1c0-5.7 1.8-10.4 5.5-14.1 3.6-3.7 8.9-5.5 15.8-5.5 7.3 0 12.7 2 16.4 5.9 3.6 4 5.5 9.2 5.5 15.7 0 7-1.9 12.3-5.7 15.9 -3.8 3.6-9.5 5.4-17.3 5.4h-43.3L197.7 161.8 197.7 161.8zM231.1 150.1c0 2.5 0.1 4.7 0.4 6.6s0.6 3.6 1 5.2h9.6c3.9 0 6.6-1 8.3-3 1.6-2 2.4-5 2.4-9.1 0-3.7-0.8-6.5-2.4-8.6 -1.6-2.1-4.3-3.1-8-3.1 -3.9 0-6.7 1-8.5 3.1C232 143.2 231.1 146.2 231.1 150.1z"/><path class="st0" d="M281.6 110.3v10.3c2.8-1 5.6-1.5 8.5-1.5 4.4 0 7.9 1 10.4 3.1 2.6 2.1 3.8 5.2 3.8 9.4 0 4.7-1.2 8.2-3.7 10.4s-6.9 3.4-13.3 3.4c-4.9 0-8.8-1.1-11.6-3.4 -2.8-2.2-4.2-5.3-4.2-9.2v-22.6L281.6 110.3 281.6 110.3zM281.6 130.3c0 2.9 0.6 4.9 1.9 5.8 1.3 1 2.8 1.5 4.6 1.5 1.9 0 3.4-0.4 4.5-1.2s1.6-2.4 1.6-4.9c0-2.2-0.5-3.9-1.6-4.8 -1.1-1-2.6-1.5-4.5-1.5 -2.6 0-4.7 0.3-6.5 0.9V130.3z"/><path class="st0" d="M311.5 110.3h10.2c15.3 0 25.6 2.4 31.1 7.1 5.4 4.7 8.1 12.3 8.1 22.7 0 11.8-2.8 20-8.4 24.6s-15.9 6.9-30.9 6.9h-10.2v-9.8h9.2c12.3 0 20.2-1.6 23.7-4.8s5.2-8.6 5.2-16.2c0-6.9-1.8-12.1-5.4-15.5 -3.6-3.5-11.5-5.2-23.5-5.2h-9.1L311.5 110.3 311.5 110.3z"/><path class="st0" d="M394 145.5h-2c-9 0-15.1-1.5-18.5-4.6s-5.1-7.5-5.1-13.4c0-5.2 1.7-9.4 5.1-12.5s9.2-4.7 17.3-4.7h3.2v8.2h-2.5c-5.3 0-8.7 0.8-10.4 2.5 -1.7 1.6-2.5 3.8-2.5 6.5 0 2.8 0.9 5.1 2.6 7 1.8 1.9 5.1 2.8 10.1 2.8h2.7L394 145.5 394 145.5z"/><path class="st0" d="M132.1 245.9v-58.6h10.3v58.6H132.1z"/><path class="st0" d="M154.5 212.4c0-0.8 0-1.8-0.1-3.1 0-1.3-0.2-2.5-0.4-3.8h9.2c0.1 0.2 0.1 0.4 0.2 0.7 0.1 0.3 0.2 0.6 0.2 1 0.1 0.4 0.2 0.7 0.2 1.1 0.1 0.4 0.1 0.7 0.2 1.1 0.6-0.5 1.3-1.1 2.2-1.6 0.8-0.5 1.8-1 2.8-1.5 1-0.4 2.1-0.8 3.3-1 1.2-0.3 2.4-0.4 3.7-0.4 2.1 0 4 0.3 5.9 1 1.8 0.6 3.4 1.6 4.7 2.8s2.4 2.7 3.2 4.5 1.2 3.8 1.2 6v26.7h-9.7V221c0-1.6-0.2-3-0.5-4.1s-0.8-2-1.4-2.7c-0.6-0.7-1.4-1.2-2.3-1.5 -0.9-0.3-2-0.5-3.2-0.5 -0.7 0-1.4 0.1-2.2 0.2 -0.8 0.1-1.6 0.3-2.5 0.5 -0.8 0.2-1.7 0.5-2.5 0.8s-1.6 0.6-2.3 1v31.2h-9.7v-33.5H154.5z"/><path class="st0" d="M212.1 205.5v27.7c0 1.1 0.2 2 0.5 2.8s0.7 1.4 1.3 1.9c0.5 0.5 1.1 0.8 1.9 1.1 0.7 0.2 1.5 0.3 2.3 0.3 1.8 0 3.8-0.2 5.7-0.7 2-0.5 3.8-1.2 5.3-2.2v-30.9h9.7v33.4c0 0.6 0.1 1.6 0.2 2.8 0.1 1.2 0.4 2.6 0.7 4.2h-9.2c-0.1-0.1-0.1-0.4-0.2-0.8 -0.1-0.4-0.2-0.9-0.3-1.3 -0.1-0.5-0.2-0.9-0.3-1.3 -0.1-0.4-0.2-0.7-0.2-0.9 -0.8 0.7-1.8 1.4-2.9 2.1 -1.1 0.6-2.2 1.2-3.3 1.6 -1.2 0.5-2.3 0.8-3.5 1.1 -1.2 0.2-2.3 0.4-3.4 0.4 -2.7 0-4.9-0.4-6.7-1.1 -1.8-0.7-3.2-1.7-4.3-3s-1.8-2.8-2.3-4.5 -0.7-3.6-0.7-5.5v-27h9.7V205.5z"/><path class="st0" d="M259.9 220.4l13.2-14.9h12.2l-18.4 18 19.6 22.4h-11.7l-14.9-17.5v17.5h-9.7v-58.7h9.7L259.9 220.4 259.9 220.4z"/><path class="st0" d="M289.5 207.5l5.9-2 2.5-10.4h7.2v10.4h9.9l-0.9 7h-9v20.6c0 1.1 0.1 2.1 0.2 2.9 0.2 0.8 0.4 1.4 0.7 1.9 0.3 0.5 0.7 0.8 1.1 1s1 0.3 1.5 0.3c0.8 0 1.7-0.1 2.7-0.3s2.1-0.5 3.4-1l2.2 4.8c-1.8 1.4-3.6 2.4-5.3 3.1 -1.7 0.7-3.4 1-5.1 1 -2.2 0-4.1-0.3-5.5-0.9 -1.4-0.6-2.6-1.4-3.5-2.5s-1.5-2.4-1.8-3.9 -0.5-3.3-0.5-5.2v-21.7h-5.9v-5.1H289.5z"/><path class="st0" d="M332.6 205.5v27.7c0 1.1 0.2 2 0.5 2.8s0.7 1.4 1.3 1.9c0.5 0.5 1.1 0.8 1.9 1.1 0.7 0.2 1.5 0.3 2.3 0.3 1.8 0 3.8-0.2 5.7-0.7 2-0.5 3.8-1.2 5.3-2.2v-30.9h9.7v33.4c0 0.6 0.1 1.6 0.2 2.8s0.4 2.6 0.7 4.2H351c-0.1-0.1-0.1-0.4-0.2-0.8 -0.1-0.4-0.2-0.9-0.3-1.3 -0.1-0.5-0.2-0.9-0.3-1.3 -0.1-0.4-0.2-0.7-0.2-0.9 -0.8 0.7-1.8 1.4-2.9 2.1 -1.1 0.6-2.2 1.2-3.3 1.6 -1.2 0.5-2.3 0.8-3.5 1.1 -1.2 0.2-2.3 0.4-3.4 0.4 -2.7 0-4.9-0.4-6.7-1.1 -1.8-0.7-3.2-1.7-4.3-3 -1.1-1.3-1.8-2.8-2.3-4.5s-0.7-3.6-0.7-5.5v-27h9.7V205.5z"/><path class="st0" d="M367.5 207.5l5.9-2 2.5-10.4h7.2v10.4h9.9l-0.9 7h-9v20.6c0 1.1 0.1 2.1 0.2 2.9 0.2 0.8 0.4 1.4 0.7 1.9 0.3 0.5 0.7 0.8 1.1 1s1 0.3 1.5 0.3c0.8 0 1.7-0.1 2.7-0.3s2.1-0.5 3.4-1l2.2 4.8c-1.8 1.4-3.6 2.4-5.3 3.1 -1.7 0.7-3.4 1-5.1 1 -2.2 0-4.1-0.3-5.5-0.9 -1.4-0.6-2.6-1.4-3.5-2.5s-1.5-2.4-1.8-3.9 -0.5-3.3-0.5-5.2v-21.7h-5.9v-5.1H367.5z"/><path class="st1" d="M852.9 10.1c-117.4 0-212.5 95.1-212.5 212.5s95.1 212.5 212.5 212.5 212.5-95.1 212.5-212.5S970.3 10.1 852.9 10.1zM852.9 389.1c-92 0-166.5-74.5-166.5-166.5S760.9 56.1 852.9 56.1s166.5 74.5 166.5 166.5S944.9 389.1 852.9 389.1z"/><rect x="507.5" y="160.6" width="107" height="46"/><rect x="507.5" y="238.6" width="107" height="46"/><path d="M811.2 89.2c2.2 0 4.2 0.2 5.9 0.7s3.3 1.2 4.5 2.1 2.2 2.1 2.9 3.4c0.7 1.4 1 2.9 1 4.6 0 1.1-0.2 2.2-0.7 3.2 -0.4 1-1 2-1.8 2.9 -0.7 0.9-1.6 1.6-2.6 2.3 -1 0.6-2.1 1.1-3.2 1.4 1.1 0.2 2.3 0.6 3.5 1.1s2.3 1.3 3.3 2.2c1 0.9 1.8 2.1 2.4 3.4 0.6 1.3 1 2.9 1 4.6 0 1.5-0.3 2.9-1 4.3s-1.6 2.6-2.9 3.7c-1.3 1.1-2.9 2-4.8 2.6 -1.9 0.6-4.1 1-6.5 1h-15V89.1L811.2 89.2 811.2 89.2zM804.9 94.8v12.9h4.1c1.4 0 2.6-0.1 3.7-0.4 1.1-0.3 2.1-0.7 2.9-1.2 0.8-0.5 1.4-1.2 1.8-2.1 0.4-0.8 0.6-1.8 0.6-2.9s-0.2-2-0.5-2.8 -0.8-1.5-1.6-2 -1.7-0.9-3-1.2c-1.2-0.3-2.7-0.4-4.6-0.4L804.9 94.8 804.9 94.8zM804.9 113.4v13.8h5.9c1.5 0 2.8-0.2 4-0.6s2-0.9 2.8-1.5c0.7-0.6 1.3-1.4 1.6-2.1 0.4-0.8 0.5-1.6 0.5-2.4 0-1-0.2-1.9-0.5-2.8 -0.4-0.9-0.9-1.6-1.6-2.3 -0.7-0.6-1.7-1.2-2.9-1.5 -1.2-0.4-2.6-0.6-4.2-0.6H804.9z"/><path d="M834.4 132.8V89.2h7.7v43.6L834.4 132.8 834.4 132.8z"/><path d="M876.8 132.8h-26.5V89.2h7.7v38h18.8V132.8z"/><path d="M908.6 132.8h-26.5V89.2h7.7v38h18.8V132.8z"/><path d="M749.8 178.8c2.5-1.7 5.2-3.2 8.2-4.7 3-1.4 6.3-2.6 9.9-3.5 3.6-0.9 7.6-1.4 12.1-1.4 8.4 0 14.4 1.9 18 5.8 3.6 3.9 5.5 9.1 5.5 15.8 0 4.8-0.8 9-2.5 12.8 -1.6 3.8-4.3 7-7.9 9.7 -3.6 2.7-8.3 4.8-14.1 6.2 -5.7 1.5-12.7 2.2-20.8 2.2l-0.3 16.9 69.9-26.3c2.6-3.2 4.7-6.8 6.4-10.7 1.9-4.4 2.9-9.2 2.9-14.1 0-7.4-1.5-13.9-4.4-19.3 -3-5.4-7-9.9-12.1-13.4s-11.1-6.1-18-7.8 -14.2-2.5-22-2.5c-5.4 0-10.7 0.5-15.7 1.4 -5 1-9.7 2.2-14.1 3.8 -4.4 1.6-8.4 3.4-12 5.3 -3.6 2-6.8 4-9.5 6.1l13.9 22.3C745 182 747.3 180.5 749.8 178.8z"/><path d="M837.3 247l-30.9 11.6c0.2 0.4 0.4 0.7 0.5 1.1 1.9 4.4 2.9 10 2.9 16.7 0 10.7-2.7 18.7-8 24.1 -5.4 5.4-12.6 8.2-21.8 8.2 -2.8 0-5.6-0.3-8.4-1 -2.8-0.7-5.6-1.5-8.4-2.6 -2.8-1.1-5.4-2.2-7.9-3.5s-4.8-2.5-6.8-3.7 -3.8-2.3-5.3-3.3 -2.5-1.7-3.2-2.2l-15.1 24.8c1.8 1.2 4.5 2.7 8 4.5s7.6 3.6 12.3 5.3c4.7 1.7 9.8 3.2 15.3 4.4 5.6 1.2 11.3 1.8 17.3 1.8 9.5 0 18.3-1.1 26.4-3.2 8.1-2.1 15.1-5.5 21-10.2s10.6-10.8 14-18.3 5.1-16.7 5.1-27.6c0-6.9-0.9-13-2.7-18.2C840.4 252.6 839 249.6 837.3 247z"/><polygon points="985 153.1 985 149.1 867.3 149.1 867.3 175.6 925.4 175.6 "/><polygon points="941.3 207.8 884.5 329.5 916.9 329.5 973.8 195.6 "/><rect x="660.9" y="211.3" transform="matrix(0.9359 -0.3522 0.3522 0.9359 -23.5213 314.6364)" class="st1" width="384" height="21.4"/></svg>