<?xml version="1.0" encoding="utf-8"?>
<!-- Generator: Adobe Illustrator 21.0.2, SVG Export Plug-In . SVG Version: 6.00 Build 0)  -->
<svg version="1.1" id="Layer_1" xmlns="http://www.w3.org/2000/svg" xmlns:xlink="http://www.w3.org/1999/xlink" x="0px" y="0px"
	 width="1200px" height="630px" viewBox="0 0 1200 630" style="enable-background:new 0 0 1200 630;" xml:space="preserve">
<style type="text/css">
	.st0{fill:none;stroke:#4D4545;stroke-miterlimit:10;}
	.st1{fill:#FFFFFF;}
	.st2{fill:#FF0000;}
	.st3{fill:#4D4545;}
</style>
<rect x="37" y="38.7" class="st0" width="1126" height="528.7"/>
<rect x="577.2" y="515.5" class="st1" width="559" height="74.5"/>
<g>
	<circle class="st1" cx="902.7" cy="302.9" r="189.5"/>
	<path class="st2" d="M203.5,90.5C137,90.5,83,144.5,83,211c0,135.3,136.5,170.8,229.5,304.5C400.4,382.6,542,341.9,542,211
		c0-66.5-54-120.5-120.5-120.5c-48.2,0-89.8,28.5-109,69.5C293.3,118.9,251.7,90.5,203.5,90.5L203.5,90.5z"/>
	<path class="st1" d="M243.9,249.7v2.3h-64.5v-2.3l30-59.5h5.4L243.9,249.7z M197.2,242.4h29V241l-14-34.8h-0.7L197.2,241V242.4z"/>
	<path class="st1" d="M249.3,242.2h25.1c-0.7-2.1-1.2-4.2-1.5-6.4s-0.4-4.6-0.4-7.1c0-5.7,1.8-10.4,5.5-14.1
		c3.6-3.7,8.9-5.5,15.8-5.5c7.3,0,12.7,2,16.4,5.9c3.6,4,5.5,9.2,5.5,15.7c0,7-1.9,12.3-5.7,15.9c-3.8,3.6-9.5,5.4-17.3,5.4h-43.3
		L249.3,242.2L249.3,242.2z M282.7,230.5c0,2.5,0.1,4.7,0.4,6.6s0.6,3.6,1,5.2h9.6c3.9,0,6.6-1,8.3-3c1.6-2,2.4-5,2.4-9.1
		c0-3.7-0.8-6.5-2.4-8.6c-1.6-2.1-4.3-3.1-8-3.1c-3.9,0-6.7,1-8.5,3.1C283.6,223.6,282.7,226.6,282.7,230.5z"/>
	<path class="st1" d="M333.2,190.7V201c2.8-1,5.6-1.5,8.5-1.5c4.4,0,7.9,1,10.4,3.1c2.6,2.1,3.8,5.2,3.8,9.4c0,4.7-1.2,8.2-3.7,10.4
		s-6.9,3.4-13.3,3.4c-4.9,0-8.8-1.1-11.6-3.4c-2.8-2.2-4.2-5.3-4.2-9.2v-22.6L333.2,190.7L333.2,190.7z M333.2,210.7
		c0,2.9,0.6,4.9,1.9,5.8c1.3,1,2.8,1.5,4.6,1.5c1.9,0,3.4-0.4,4.5-1.2c1.1-0.8,1.6-2.4,1.6-4.9c0-2.2-0.5-3.9-1.6-4.8
		c-1.1-1-2.6-1.5-4.5-1.5c-2.6,0-4.7,0.3-6.5,0.9V210.7z"/>
	<path class="st1" d="M363.1,190.7h10.2c15.3,0,25.6,2.4,31.1,7.1c5.4,4.7,8.1,12.3,8.1,22.7c0,11.8-2.8,20-8.4,24.6
		c-5.6,4.6-15.9,6.9-30.9,6.9H363v-9.8h9.2c12.3,0,20.2-1.6,23.7-4.8s5.2-8.6,5.2-16.2c0-6.9-1.8-12.1-5.4-15.5
		c-3.6-3.5-11.5-5.2-23.5-5.2h-9.1L363.1,190.7L363.1,190.7z"/>
	<path class="st1" d="M445.6,225.9h-2c-9,0-15.1-1.5-18.5-4.6c-3.4-3.1-5.1-7.5-5.1-13.4c0-5.2,1.7-9.4,5.1-12.5
		c3.4-3.1,9.2-4.7,17.3-4.7h3.2v8.2h-2.5c-5.3,0-8.7,0.8-10.4,2.5c-1.7,1.6-2.5,3.8-2.5,6.5c0,2.8,0.9,5.1,2.6,7
		c1.8,1.9,5.1,2.8,10.1,2.8h2.7L445.6,225.9L445.6,225.9z"/>
	<path class="st1" d="M183.7,326.3v-58.6H194v58.6H183.7z"/>
	<path class="st1" d="M206.1,292.8c0-0.8,0-1.8-0.1-3.1c0-1.3-0.2-2.5-0.4-3.8h9.2c0.1,0.2,0.1,0.4,0.2,0.7c0.1,0.3,0.2,0.6,0.2,1
		c0.1,0.4,0.2,0.7,0.2,1.1c0.1,0.4,0.1,0.7,0.2,1.1c0.6-0.5,1.3-1.1,2.2-1.6c0.8-0.5,1.8-1,2.8-1.5c1-0.4,2.1-0.8,3.3-1
		c1.2-0.3,2.4-0.4,3.7-0.4c2.1,0,4,0.3,5.9,1c1.8,0.6,3.4,1.6,4.7,2.8c1.3,1.2,2.4,2.7,3.2,4.5c0.8,1.8,1.2,3.8,1.2,6v26.7h-9.7
		v-24.9c0-1.6-0.2-3-0.5-4.1s-0.8-2-1.4-2.7c-0.6-0.7-1.4-1.2-2.3-1.5c-0.9-0.3-2-0.5-3.2-0.5c-0.7,0-1.4,0.1-2.2,0.2
		s-1.6,0.3-2.5,0.5c-0.8,0.2-1.7,0.5-2.5,0.8c-0.8,0.3-1.6,0.6-2.3,1v31.2h-9.7v-33.5H206.1z"/>
	<path class="st1" d="M263.7,285.9v27.7c0,1.1,0.2,2,0.5,2.8c0.3,0.8,0.7,1.4,1.3,1.9c0.5,0.5,1.1,0.8,1.9,1.1
		c0.7,0.2,1.5,0.3,2.3,0.3c1.8,0,3.8-0.2,5.7-0.7c2-0.5,3.8-1.2,5.3-2.2v-30.9h9.7v33.4c0,0.6,0.1,1.6,0.2,2.8
		c0.1,1.2,0.4,2.6,0.7,4.2h-9.2c-0.1-0.1-0.1-0.4-0.2-0.8c-0.1-0.4-0.2-0.9-0.3-1.3c-0.1-0.5-0.2-0.9-0.3-1.3
		c-0.1-0.4-0.2-0.7-0.2-0.9c-0.8,0.7-1.8,1.4-2.9,2.1c-1.1,0.6-2.2,1.2-3.3,1.6c-1.2,0.5-2.3,0.8-3.5,1.1c-1.2,0.2-2.3,0.4-3.4,0.4
		c-2.7,0-4.9-0.4-6.7-1.1c-1.8-0.7-3.2-1.7-4.3-3c-1.1-1.3-1.8-2.8-2.3-4.5c-0.5-1.7-0.7-3.6-0.7-5.5v-27h9.7V285.9z"/>
	<path class="st1" d="M311.5,300.8l13.2-14.9h12.2l-18.4,18l19.6,22.4h-11.7l-14.9-17.5v17.5h-9.7v-58.7h9.7V300.8L311.5,300.8z"/>
	<path class="st1" d="M341.1,287.9l5.9-2l2.5-10.4h7.2v10.4h9.9l-0.9,7h-9v20.6c0,1.1,0.1,2.1,0.2,2.9c0.2,0.8,0.4,1.4,0.7,1.9
		c0.3,0.5,0.7,0.8,1.1,1c0.4,0.2,1,0.3,1.5,0.3c0.8,0,1.7-0.1,2.7-0.3c1-0.2,2.1-0.5,3.4-1l2.2,4.8c-1.8,1.4-3.6,2.4-5.3,3.1
		c-1.7,0.7-3.4,1-5.1,1c-2.2,0-4.1-0.3-5.5-0.9c-1.4-0.6-2.6-1.4-3.5-2.5c-0.9-1.1-1.5-2.4-1.8-3.9s-0.5-3.3-0.5-5.2V293h-5.9v-5.1
		H341.1z"/>
	<path class="st1" d="M384.2,285.9v27.7c0,1.1,0.2,2,0.5,2.8c0.3,0.8,0.7,1.4,1.3,1.9c0.5,0.5,1.1,0.8,1.9,1.1
		c0.7,0.2,1.5,0.3,2.3,0.3c1.8,0,3.8-0.2,5.7-0.7c2-0.5,3.8-1.2,5.3-2.2v-30.9h9.7v33.4c0,0.6,0.1,1.6,0.2,2.8
		c0.1,1.2,0.4,2.6,0.7,4.2h-9.2c-0.1-0.1-0.1-0.4-0.2-0.8c-0.1-0.4-0.2-0.9-0.3-1.3c-0.1-0.5-0.2-0.9-0.3-1.3
		c-0.1-0.4-0.2-0.7-0.2-0.9c-0.8,0.7-1.8,1.4-2.9,2.1c-1.1,0.6-2.2,1.2-3.3,1.6c-1.2,0.5-2.3,0.8-3.5,1.1c-1.2,0.2-2.3,0.4-3.4,0.4
		c-2.7,0-4.9-0.4-6.7-1.1c-1.8-0.7-3.2-1.7-4.3-3c-1.1-1.3-1.8-2.8-2.3-4.5c-0.5-1.7-0.7-3.6-0.7-5.5v-27h9.7V285.9z"/>
	<path class="st1" d="M419.1,287.9l5.9-2l2.5-10.4h7.2v10.4h9.9l-0.9,7h-9v20.6c0,1.1,0.1,2.1,0.2,2.9c0.2,0.8,0.4,1.4,0.7,1.9
		c0.3,0.5,0.7,0.8,1.1,1c0.4,0.2,1,0.3,1.5,0.3c0.8,0,1.7-0.1,2.7-0.3c1-0.2,2.1-0.5,3.4-1l2.2,4.8c-1.8,1.4-3.6,2.4-5.3,3.1
		c-1.7,0.7-3.4,1-5.1,1c-2.2,0-4.1-0.3-5.5-0.9c-1.4-0.6-2.6-1.4-3.5-2.5c-0.9-1.1-1.5-2.4-1.8-3.9s-0.5-3.3-0.5-5.2V293h-5.9v-5.1
		H419.1z"/>
	<path class="st2" d="M904.5,90.5C787.1,90.5,692,185.6,692,303s95.1,212.5,212.5,212.5S1117,420.4,1117,303S1021.9,90.5,904.5,90.5
		z M904.5,469.5C812.5,469.5,738,395,738,303s74.5-166.5,166.5-166.5S1071,211,1071,303S996.5,469.5,904.5,469.5z"/>
	<rect x="559.1" y="241" width="107" height="46"/>
	<rect x="559.1" y="319" width="107" height="46"/>
	<g>
		<path d="M862.8,169.6c2.2,0,4.2,0.2,5.9,0.7s3.3,1.2,4.5,2.1c1.2,0.9,2.2,2.1,2.9,3.4c0.7,1.4,1,2.9,1,4.6c0,1.1-0.2,2.2-0.7,3.2
			c-0.4,1-1,2-1.8,2.9c-0.7,0.9-1.6,1.6-2.6,2.3c-1,0.6-2.1,1.1-3.2,1.4c1.1,0.2,2.3,0.6,3.5,1.1s2.3,1.3,3.3,2.2
			c1,0.9,1.8,2.1,2.4,3.4c0.6,1.3,1,2.9,1,4.6c0,1.5-0.3,2.9-1,4.3c-0.7,1.4-1.6,2.6-2.9,3.7c-1.3,1.1-2.9,2-4.8,2.6
			c-1.9,0.6-4.1,1-6.5,1h-15v-43.6L862.8,169.6L862.8,169.6z M856.5,175.2v12.9h4.1c1.4,0,2.6-0.1,3.7-0.4c1.1-0.3,2.1-0.7,2.9-1.2
			c0.8-0.5,1.4-1.2,1.8-2.1c0.4-0.8,0.6-1.8,0.6-2.9c0-1.1-0.2-2-0.5-2.8s-0.8-1.5-1.6-2s-1.7-0.9-3-1.2c-1.2-0.3-2.7-0.4-4.6-0.4
			L856.5,175.2L856.5,175.2z M856.5,193.8v13.8h5.9c1.5,0,2.8-0.2,4-0.6c1.2-0.4,2-0.9,2.8-1.5c0.7-0.6,1.3-1.4,1.6-2.1
			c0.4-0.8,0.5-1.6,0.5-2.4c0-1-0.2-1.9-0.5-2.8c-0.4-0.9-0.9-1.6-1.6-2.3c-0.7-0.6-1.7-1.2-2.9-1.5c-1.2-0.4-2.6-0.6-4.2-0.6H856.5
			z"/>
		<path d="M886,213.2v-43.6h7.7v43.6L886,213.2L886,213.2z"/>
		<path d="M928.4,213.2h-26.5v-43.6h7.7v38h18.8V213.2z"/>
		<path d="M960.2,213.2h-26.5v-43.6h7.7v38h18.8V213.2z"/>
	</g>
	<g>
		<g>
			<g>
				<path d="M801.4,259.2c2.5-1.7,5.2-3.2,8.2-4.7c3-1.4,6.3-2.6,9.9-3.5c3.6-0.9,7.6-1.4,12.1-1.4c8.4,0,14.4,1.9,18,5.8
					c3.6,3.9,5.5,9.1,5.5,15.8c0,4.8-0.8,9-2.5,12.8c-1.6,3.8-4.3,7-7.9,9.7c-3.6,2.7-8.3,4.8-14.1,6.2c-5.7,1.5-12.7,2.2-20.8,2.2
					l-0.3,16.9l69.9-26.3c2.6-3.2,4.7-6.8,6.4-10.7c1.9-4.4,2.9-9.2,2.9-14.1c0-7.4-1.5-13.9-4.4-19.3c-3-5.4-7-9.9-12.1-13.4
					s-11.1-6.1-18-7.8s-14.2-2.5-22-2.5c-5.4,0-10.7,0.5-15.7,1.4c-5,1-9.7,2.2-14.1,3.8c-4.4,1.6-8.4,3.4-12,5.3
					c-3.6,2-6.8,4-9.5,6.1l13.9,22.3C796.6,262.4,798.9,260.9,801.4,259.2z"/>
				<path d="M888.9,327.4L858,339c0.2,0.4,0.4,0.7,0.5,1.1c1.9,4.4,2.9,10,2.9,16.7c0,10.7-2.7,18.7-8,24.1
					c-5.4,5.4-12.6,8.2-21.8,8.2c-2.8,0-5.6-0.3-8.4-1c-2.8-0.7-5.6-1.5-8.4-2.6c-2.8-1.1-5.4-2.2-7.9-3.5s-4.8-2.5-6.8-3.7
					s-3.8-2.3-5.3-3.3s-2.5-1.7-3.2-2.2l-15.1,24.8c1.8,1.2,4.5,2.7,8,4.5s7.6,3.6,12.3,5.3c4.7,1.7,9.8,3.2,15.3,4.4
					c5.6,1.2,11.3,1.8,17.3,1.8c9.5,0,18.3-1.1,26.4-3.2c8.1-2.1,15.1-5.5,21-10.2s10.6-10.8,14-18.3s5.1-16.7,5.1-27.6
					c0-6.9-0.9-13-2.7-18.2C892,333,890.6,330,888.9,327.4z"/>
			</g>
			<g>
				<polygon points="1036.6,233.5 1036.6,229.5 918.9,229.5 918.9,256 977,256 				"/>
				<polygon points="992.9,288.2 936.1,409.9 968.5,409.9 1025.4,276 				"/>
			</g>
		</g>
		
			<rect x="712.5" y="291.7" transform="matrix(0.9359 -0.3522 0.3522 0.9359 -48.529 337.9616)" class="st2" width="384" height="21.4"/>
	</g>
</g>
<g>
	<path class="st3" d="M589.6,550.3h8.2l5.7,20.9l4.9-20.9h4.1l5.7,20.9l4.9-20.9h8.2l-10.3,31.3h-5l-5.4-20.7l-4.7,20.7h-5.3
		L589.6,550.3z"/>
	<path class="st3" d="M634.2,550.3h8.2l5.7,20.9l4.9-20.9h4.1l5.7,20.9l4.9-20.9h8.2l-10.3,31.3h-5l-5.4-20.7l-4.7,20.7h-5.3
		L634.2,550.3z"/>
	<path class="st3" d="M678.7,550.3h8.2l5.7,20.9l4.9-20.9h4.1l5.7,20.9l4.9-20.9h8.2l-10.3,31.3h-5l-5.4-20.7l-4.7,20.7h-5.3
		L678.7,550.3z"/>
	<path class="st3" d="M725,577.9c0-0.6,0.1-1.1,0.3-1.6s0.5-0.9,0.9-1.3s0.8-0.7,1.3-0.9s1-0.3,1.6-0.3c0.5,0,1.1,0.1,1.5,0.3
		s0.9,0.5,1.3,0.9c0.4,0.4,0.7,0.8,0.9,1.3s0.3,1,0.3,1.6c0,0.6-0.1,1.1-0.3,1.6c-0.2,0.5-0.5,0.9-0.9,1.3c-0.4,0.4-0.8,0.7-1.3,0.9
		s-1,0.3-1.5,0.3c-0.5,0-1.1-0.1-1.6-0.3s-0.9-0.5-1.3-0.9s-0.7-0.8-0.9-1.3C725.1,579.1,725,578.5,725,577.9z"/>
	<path class="st3" d="M740.4,540.5c0-0.6,0.1-1.2,0.3-1.7s0.5-0.9,0.9-1.3c0.4-0.4,0.8-0.7,1.3-0.9s1.1-0.3,1.6-0.3
		c0.6,0,1.2,0.1,1.7,0.3c0.5,0.2,0.9,0.5,1.3,0.9c0.4,0.4,0.6,0.8,0.8,1.3c0.2,0.5,0.3,1,0.3,1.6c0,0.6-0.1,1.1-0.3,1.6
		s-0.5,0.9-0.8,1.3c-0.4,0.4-0.8,0.7-1.3,0.9c-0.5,0.2-1.1,0.3-1.7,0.3c-0.6,0-1.1-0.1-1.6-0.4c-0.5-0.2-1-0.6-1.3-1
		c-0.4-0.4-0.7-0.9-0.9-1.4S740.4,541.1,740.4,540.5z M740.8,550.3h7.5v31.3h-7.5V550.3z"/>
	<path class="st3" d="M758.4,555.7c0-0.6,0-1.4,0-2.4c0-1-0.1-2-0.3-3h7.1c0.1,0.1,0.1,0.3,0.2,0.6c0.1,0.2,0.1,0.5,0.2,0.8
		c0.1,0.3,0.1,0.6,0.2,0.9c0,0.3,0.1,0.6,0.1,0.8c0.5-0.4,1-0.9,1.7-1.3c0.7-0.4,1.4-0.8,2.2-1.1c0.8-0.3,1.6-0.6,2.5-0.8
		s1.9-0.3,2.8-0.3c1.6,0,3.1,0.3,4.5,0.8s2.6,1.2,3.7,2.2c1,0.9,1.9,2.1,2.5,3.5s0.9,2.9,0.9,4.7v20.7H779v-19.3
		c0-1.3-0.1-2.3-0.4-3.2c-0.3-0.9-0.6-1.6-1.1-2.1s-1.1-0.9-1.8-1.2c-0.7-0.2-1.5-0.4-2.5-0.4c-0.5,0-1.1,0-1.7,0.1
		s-1.3,0.2-1.9,0.4s-1.3,0.4-1.9,0.6c-0.6,0.2-1.2,0.5-1.8,0.8v24.2h-7.5V555.7z"/>
	<path class="st3" d="M803.1,550.3v21.5c0,0.8,0.1,1.5,0.4,2.1c0.2,0.6,0.6,1.1,1,1.5c0.4,0.4,0.9,0.7,1.4,0.8
		c0.6,0.2,1.1,0.3,1.8,0.3c1.4,0,2.9-0.2,4.4-0.5c1.5-0.4,2.9-0.9,4.1-1.7v-24h7.5v25.9c0,0.5,0.1,1.2,0.2,2.2
		c0.1,0.9,0.3,2,0.5,3.3h-7.1c0-0.1-0.1-0.3-0.2-0.7c-0.1-0.3-0.2-0.7-0.3-1s-0.2-0.7-0.2-1c-0.1-0.3-0.1-0.6-0.1-0.7
		c-0.7,0.6-1.4,1.1-2.2,1.6c-0.8,0.5-1.7,0.9-2.6,1.3c-0.9,0.4-1.8,0.6-2.7,0.8c-0.9,0.2-1.8,0.3-2.6,0.3c-2.1,0-3.8-0.3-5.2-0.9
		s-2.5-1.3-3.3-2.3c-0.8-1-1.4-2.1-1.8-3.5c-0.3-1.3-0.5-2.8-0.5-4.3v-20.9H803.1z"/>
	<path class="st3" d="M833.4,540.5c0-0.6,0.1-1.2,0.3-1.7s0.5-0.9,0.9-1.3c0.4-0.4,0.8-0.7,1.3-0.9s1.1-0.3,1.6-0.3
		c0.6,0,1.2,0.1,1.7,0.3c0.5,0.2,0.9,0.5,1.3,0.9c0.4,0.4,0.6,0.8,0.8,1.3c0.2,0.5,0.3,1,0.3,1.6c0,0.6-0.1,1.1-0.3,1.6
		s-0.5,0.9-0.8,1.3c-0.4,0.4-0.8,0.7-1.3,0.9c-0.5,0.2-1.1,0.3-1.7,0.3c-0.6,0-1.1-0.1-1.6-0.4c-0.5-0.2-1-0.6-1.3-1
		c-0.4-0.4-0.7-0.9-0.9-1.4S833.4,541.1,833.4,540.5z M833.8,550.3h7.5v31.3h-7.5V550.3z"/>
	<path class="st3" d="M847.7,551.9l4.6-1.6l2-8.1h5.6v8.1h7.7l-0.7,5.4h-7v16c0,0.9,0.1,1.6,0.2,2.2c0.1,0.6,0.3,1.1,0.5,1.5
		c0.2,0.4,0.5,0.6,0.9,0.8c0.3,0.2,0.7,0.2,1.2,0.2c0.6,0,1.3-0.1,2.1-0.2c0.8-0.1,1.7-0.4,2.6-0.8l1.7,3.7
		c-1.4,1.1-2.8,1.9-4.1,2.4s-2.7,0.8-3.9,0.8c-1.7,0-3.2-0.2-4.3-0.7c-1.1-0.5-2-1.1-2.7-1.9c-0.7-0.8-1.1-1.9-1.4-3.1
		c-0.3-1.2-0.4-2.5-0.4-4v-16.8h-4.6V551.9z"/>
	<path class="st3" d="M880.5,550.3c0.4,2.1,0.7,4.1,0.9,6.3c0.4-0.9,0.9-1.7,1.6-2.5c0.7-0.8,1.5-1.5,2.3-2.2
		c0.9-0.6,1.7-1.1,2.7-1.5c0.9-0.4,1.8-0.6,2.7-0.6c1.1,0,1.9,0.1,2.4,0.2c0.5,0.1,0.9,0.3,1.2,0.4l-1.6,6.8
		c-0.6-0.3-1.2-0.5-1.7-0.6c-0.5-0.1-1.1-0.2-1.6-0.2c-1.8,0-3.3,0.4-4.6,1.3c-1.3,0.9-2.3,2-3.1,3.4l0.1,20.5H874v-26.1
		c0-0.3,0-0.7,0-1.2s0-1,0-1.5c0-0.5,0-1-0.1-1.5c0-0.5-0.1-0.8-0.1-1H880.5z"/>
	<path class="st3" d="M899.5,540.5c0-0.6,0.1-1.2,0.3-1.7s0.5-0.9,0.9-1.3c0.4-0.4,0.8-0.7,1.3-0.9s1.1-0.3,1.6-0.3
		c0.6,0,1.2,0.1,1.7,0.3c0.5,0.2,0.9,0.5,1.3,0.9c0.4,0.4,0.6,0.8,0.8,1.3c0.2,0.5,0.3,1,0.3,1.6c0,0.6-0.1,1.1-0.3,1.6
		s-0.5,0.9-0.8,1.3c-0.4,0.4-0.8,0.7-1.3,0.9c-0.5,0.2-1.1,0.3-1.7,0.3c-0.6,0-1.1-0.1-1.6-0.4c-0.5-0.2-1-0.6-1.3-1
		c-0.4-0.4-0.7-0.9-0.9-1.4S899.5,541.1,899.5,540.5z M899.9,550.3h7.5v31.3h-7.5V550.3z"/>
	<path class="st3" d="M939.8,555.1c0.5,0.6,0.9,1.4,1.3,2.5s0.6,2.3,0.6,3.9c0,1.7-0.4,3.2-1.1,4.6c-0.7,1.3-1.6,2.5-2.7,3.4
		c-1.1,0.9-2.3,1.6-3.7,2.1c-1.3,0.5-2.6,0.7-3.8,0.7c-1.7,0-3.1-0.1-4.2-0.3c-1.1-0.2-2-0.5-2.8-0.9c-0.4,0.3-0.7,0.7-1,1.2
		c-0.3,0.5-0.5,1-0.5,1.6c0,0.3,0.2,0.5,0.5,0.8c0.3,0.2,0.7,0.5,1.2,0.7c0.5,0.2,1.1,0.4,1.8,0.6c0.7,0.2,1.4,0.3,2.1,0.5
		c0.7,0.1,1.4,0.3,2.1,0.4s1.4,0.2,2,0.3c1,0.2,2,0.3,3.1,0.5c1.1,0.2,2.1,0.4,3.1,0.6c1,0.3,2,0.6,2.8,0.9s1.7,0.8,2.4,1.4
		c0.7,0.6,1.2,1.2,1.6,2c0.4,0.8,0.6,1.7,0.6,2.8c0,1.5-0.3,2.7-0.8,3.8c-0.5,1.1-1.2,2-2.1,2.7c-0.9,0.8-1.9,1.4-3,1.9
		s-2.3,0.9-3.6,1.1c-1.3,0.3-2.6,0.5-3.9,0.6c-1.3,0.1-2.6,0.1-3.8,0.1c-2.2,0-4.2-0.2-5.8-0.5c-1.6-0.3-3-0.7-4.1-1.3
		c-1.1-0.6-1.9-1.2-2.4-2c-0.5-0.8-0.8-1.6-0.8-2.6c0-1.1,0.2-2,0.5-2.8c0.4-0.8,0.8-1.5,1.4-2.2c0.6-0.6,1.2-1.2,2-1.7
		c0.7-0.5,1.5-1,2.3-1.4c-0.4-0.2-0.9-0.5-1.5-0.8s-1.2-0.6-1.7-1.1c-0.6-0.4-1-1-1.4-1.7c-0.4-0.7-0.6-1.5-0.6-2.4
		c0-0.7,0.1-1.3,0.4-1.9c0.3-0.6,0.6-1.1,1.1-1.6c0.5-0.5,1-0.9,1.6-1.3c0.6-0.4,1.3-0.7,2-1c-0.8-0.6-1.5-1.2-2-1.8
		c-0.5-0.6-1-1.3-1.3-2c-0.3-0.7-0.6-1.5-0.8-2.3c-0.2-0.8-0.2-1.7-0.2-2.7c0-1.7,0.3-3.3,1-4.6c0.6-1.3,1.5-2.4,2.7-3.4
		c1.2-0.9,2.5-1.6,4.1-2.1c1.6-0.5,3.3-0.7,5.2-0.7c0.8,0,1.6,0,2.2,0.1c0.6,0.1,1.3,0.2,1.8,0.3c0.6,0.2,1.1,0.3,1.7,0.6
		s1.2,0.5,1.9,0.8c1.7-0.5,3.2-0.8,4.8-1c1.5-0.2,2.9-0.3,4.3-0.3l-1.2,5.6L939.8,555.1z M923.9,582.1c-0.4,0.3-0.7,0.7-1,1.1
		c-0.3,0.4-0.5,0.8-0.7,1.2c-0.2,0.4-0.3,0.9-0.4,1.3c-0.1,0.4-0.1,0.9-0.1,1.3c0,0.6,0.2,1.2,0.6,1.7s0.9,1.1,1.5,1.5
		c0.6,0.4,1.3,0.8,2.2,1.1c0.8,0.3,1.6,0.4,2.5,0.4c1.8,0,3.3-0.1,4.6-0.4c1.2-0.3,2.2-0.6,3-1.1c0.7-0.4,1.3-1,1.6-1.6
		c0.3-0.6,0.5-1.2,0.5-1.9c0-0.4-0.2-0.8-0.5-1.2c-0.3-0.3-0.8-0.6-1.4-0.9c-0.6-0.3-1.3-0.5-2.2-0.7c-0.8-0.2-1.7-0.4-2.7-0.6
		c-1.5-0.3-2.9-0.6-4.1-0.8S924.9,582.2,923.9,582.1z M929.4,567.7c1.1,0,1.9-0.2,2.6-0.6c0.6-0.4,1.1-0.9,1.5-1.6
		c0.3-0.6,0.6-1.4,0.7-2.3c0.1-0.9,0.2-1.8,0.2-2.7c0-2.2-0.5-3.8-1.4-4.8s-2.3-1.5-4-1.5c-1.5,0-2.8,0.5-3.7,1.5
		c-1,1-1.4,2.6-1.4,4.6c0,1,0.1,1.9,0.3,2.8c0.2,0.9,0.5,1.7,1,2.3c0.5,0.7,1,1.2,1.8,1.6C927.5,567.5,928.4,567.7,929.4,567.7z"/>
	<path class="st3" d="M951.6,536.2h7.5v16.5c0.4-0.3,0.9-0.7,1.4-1c0.5-0.3,1.1-0.7,1.8-0.9c0.7-0.3,1.4-0.5,2.2-0.7
		c0.8-0.2,1.7-0.2,2.6-0.2c1.9,0,3.6,0.3,5.1,0.8s2.8,1.2,3.9,2.2c1.1,1,1.9,2.2,2.5,3.6c0.6,1.4,0.9,3,0.9,4.8v20.5h-7.5v-20.3
		c0-2-0.5-3.5-1.5-4.5s-2.4-1.4-4.3-1.4c-0.6,0-1.1,0-1.7,0.1c-0.6,0.1-1.1,0.2-1.7,0.3c-0.6,0.1-1.1,0.3-1.7,0.5s-1.2,0.4-1.9,0.7
		v24.5h-7.5V536.2z"/>
	<path class="st3" d="M985.4,551.9l4.6-1.6l2-8.1h5.6v8.1h7.7l-0.7,5.4h-7v16c0,0.9,0.1,1.6,0.2,2.2c0.1,0.6,0.3,1.1,0.5,1.5
		c0.2,0.4,0.5,0.6,0.9,0.8c0.3,0.2,0.7,0.2,1.2,0.2c0.6,0,1.3-0.1,2.1-0.2c0.8-0.1,1.7-0.4,2.6-0.8l1.7,3.7
		c-1.4,1.1-2.8,1.9-4.1,2.4s-2.7,0.8-3.9,0.8c-1.7,0-3.2-0.2-4.3-0.7c-1.1-0.5-2-1.1-2.7-1.9c-0.7-0.8-1.1-1.9-1.4-3.1
		c-0.3-1.2-0.4-2.5-0.4-4v-16.8h-4.6V551.9z"/>
	<path class="st3" d="M1013.2,572.5c2.9,3.2,5.9,4.8,9.2,4.8c0.7,0,1.4-0.1,2-0.2c0.6-0.1,1.2-0.4,1.6-0.7c0.4-0.3,0.8-0.7,1.1-1.2
		c0.3-0.5,0.4-1.1,0.4-1.7c0-0.5-0.1-0.9-0.3-1.3c-0.2-0.4-0.5-0.7-0.8-1c-0.3-0.3-0.7-0.5-1.2-0.8c-0.4-0.2-0.9-0.4-1.3-0.6
		c-0.8-0.3-1.6-0.6-2.4-0.9s-1.6-0.6-2.4-0.9c-0.4-0.2-1-0.4-1.6-0.6s-1.3-0.5-2-0.9c-0.7-0.4-1.3-0.8-2-1.3
		c-0.7-0.5-1.3-1.1-1.8-1.7c-0.5-0.7-1-1.4-1.3-2.3c-0.3-0.9-0.5-1.9-0.5-3c0-1.4,0.3-2.6,1-3.7c0.7-1,1.6-1.9,2.7-2.6
		c1.1-0.7,2.4-1.2,3.8-1.6c1.4-0.4,2.9-0.5,4.4-0.5c2.4,0,4.6,0.3,6.5,0.8c2,0.6,3.8,1.5,5.4,2.8l-3.4,5.3c-0.6-0.6-1.2-1.1-1.8-1.6
		s-1.2-0.9-1.8-1.2c-0.6-0.3-1.3-0.6-2.1-0.8c-0.8-0.2-1.6-0.3-2.6-0.3c-0.8,0-1.5,0.1-2.1,0.3c-0.6,0.2-1.1,0.5-1.4,0.8
		s-0.7,0.7-0.8,1.1c-0.2,0.4-0.3,0.9-0.3,1.3c0,0.5,0.1,1,0.4,1.3c0.3,0.4,0.6,0.7,1,1c0.4,0.3,0.8,0.5,1.3,0.7
		c0.5,0.2,1,0.4,1.5,0.6c0.8,0.3,1.6,0.6,2.5,0.9c0.8,0.3,1.6,0.6,2.5,0.9c0.4,0.2,0.9,0.3,1.5,0.6s1.2,0.5,1.8,0.8s1.2,0.7,1.8,1.2
		c0.6,0.5,1.2,1,1.6,1.7c0.5,0.7,0.9,1.4,1.2,2.3c0.3,0.9,0.4,1.9,0.4,3.1c0,1.5-0.4,2.7-1.1,3.8c-0.7,1.1-1.7,2-2.8,2.8
		c-1.2,0.7-2.5,1.3-4,1.7s-3,0.6-4.6,0.6c-1.4,0-2.7-0.1-3.9-0.2c-1.2-0.2-2.4-0.4-3.5-0.8s-2.2-0.9-3.2-1.5c-1-0.6-2-1.4-2.8-2.4
		L1013.2,572.5z"/>
	<path class="st3" d="M1040.3,577.9c0-0.6,0.1-1.1,0.3-1.6s0.5-0.9,0.9-1.3s0.8-0.7,1.3-0.9s1-0.3,1.6-0.3c0.5,0,1.1,0.1,1.5,0.3
		s0.9,0.5,1.3,0.9c0.4,0.4,0.7,0.8,0.9,1.3s0.3,1,0.3,1.6c0,0.6-0.1,1.1-0.3,1.6c-0.2,0.5-0.5,0.9-0.9,1.3c-0.4,0.4-0.8,0.7-1.3,0.9
		s-1,0.3-1.5,0.3c-0.5,0-1.1-0.1-1.6-0.3s-0.9-0.5-1.3-0.9s-0.7-0.8-0.9-1.3C1040.4,579.1,1040.3,578.5,1040.3,577.9z"/>
	<path class="st3" d="M1082.7,576.3c-0.9,1.2-1.8,2.2-2.8,3c-1,0.8-2,1.3-3.1,1.8c-1.1,0.4-2.2,0.7-3.4,0.8
		c-1.2,0.1-2.3,0.2-3.5,0.2c-2.8,0-5.2-0.5-7.1-1.4s-3.6-2.1-4.8-3.6c-1.2-1.5-2.2-3.2-2.7-5.1s-0.9-3.9-0.9-5.8
		c0-2.3,0.3-4.5,1-6.5s1.7-3.7,3.1-5.2c1.4-1.5,3-2.6,5.1-3.4c2-0.8,4.4-1.2,7-1.2c1.1,0,2.1,0,3.1,0.1s1.9,0.3,2.9,0.6
		c0.9,0.3,1.8,0.7,2.6,1.1s1.6,1.1,2.4,1.9l-4.7,4.8c-0.6-0.6-1.1-1.1-1.6-1.5c-0.5-0.4-1-0.7-1.5-1c-0.5-0.3-1.1-0.5-1.6-0.6
		c-0.6-0.1-1.2-0.2-1.9-0.2c-1.4,0-2.6,0.3-3.6,0.9s-1.8,1.4-2.5,2.4s-1.1,2.1-1.4,3.3s-0.4,2.4-0.4,3.6c0,1.6,0.2,3,0.5,4.4
		c0.3,1.4,0.8,2.6,1.5,3.6c0.7,1,1.5,1.8,2.5,2.4c1,0.6,2.2,0.9,3.6,0.9c0.7,0,1.3-0.1,1.9-0.2c0.6-0.1,1.2-0.3,1.8-0.7
		c0.6-0.3,1.2-0.8,1.7-1.3c0.6-0.6,1.2-1.3,1.8-2.2L1082.7,576.3z"/>
	<path class="st3" d="M1088.6,554.6c1.6-1.5,3.6-2.7,5.9-3.5c2.3-0.8,4.6-1.3,7.1-1.3c1.7,0,3.3,0.2,4.8,0.6c1.5,0.4,2.9,1,4.1,1.8
		s2.2,1.8,2.9,3.1c0.7,1.2,1.1,2.7,1.1,4.4v14c0,0.7,0,1.2,0.1,1.7c0.1,0.5,0.2,0.8,0.4,1.1c0.2,0.3,0.4,0.4,0.7,0.6
		s0.6,0.2,1.1,0.2c0.2,0,0.4,0,0.9-0.1c0.4-0.1,0.8-0.1,1.2-0.2l0.8,3.3c-0.5,0.3-0.9,0.6-1.4,0.8s-1,0.5-1.6,0.7
		c-0.6,0.2-1.2,0.3-1.8,0.5c-0.6,0.1-1.4,0.2-2.1,0.2c-1.5,0-2.7-0.3-3.6-1c-1-0.7-1.6-1.6-1.9-2.9c-0.8,0.8-1.7,1.4-2.5,1.9
		c-0.9,0.5-1.7,0.9-2.6,1.2s-1.8,0.5-2.6,0.6c-0.9,0.1-1.7,0.2-2.6,0.2c-1.4,0-2.7-0.2-3.8-0.6s-2.1-0.9-2.9-1.6s-1.4-1.6-1.8-2.7
		c-0.4-1.1-0.6-2.3-0.6-3.8c0-1.6,0.2-3,0.7-4.2c0.5-1.2,1.2-2.2,2-3.1s1.9-1.6,3.1-2.2s2.5-1,3.9-1.3c1.4-0.3,2.9-0.6,4.5-0.7
		c1.6-0.1,3.2-0.2,4.8-0.2v-1.1c0-1-0.1-1.9-0.4-2.6c-0.3-0.7-0.7-1.3-1.2-1.8c-0.5-0.5-1.1-0.8-1.8-1s-1.5-0.3-2.4-0.3
		c-0.7,0-1.4,0.1-2.1,0.2c-0.7,0.1-1.3,0.3-2,0.7c-0.7,0.3-1.4,0.7-2.1,1.3s-1.5,1.2-2.4,2L1088.6,554.6z M1107,565.3
		c-2.2,0.1-4.1,0.3-5.5,0.7c-1.4,0.4-2.6,0.9-3.4,1.5c-0.8,0.6-1.4,1.4-1.8,2.2c-0.3,0.8-0.5,1.8-0.5,2.8c0,0.9,0.1,1.6,0.3,2.1
		c0.2,0.6,0.5,1,0.8,1.4c0.4,0.3,0.8,0.6,1.3,0.7c0.5,0.1,1.1,0.2,1.7,0.2c0.5,0,1.1,0,1.7-0.1s1.2-0.2,1.8-0.3
		c0.6-0.2,1.2-0.4,1.8-0.7s1.2-0.7,1.9-1.1V565.3z"/>
</g>
</svg>
