<svg xmlns="http://www.w3.org/2000/svg" width="200" height="200" viewBox="0 0 200 200"><defs><style>.cls-1{fill:#1da1f2;}.cls-2{fill:#fff;}</style></defs><title>social-twitter</title><g id="Logo_FIXED" data-name="Logo — FIXED"><rect class="cls-1" width="200" height="200" rx="50" ry="50"/><path class="cls-2" d="M76.8117,150.7944c47.1717,0,72.9679-39.08,72.9679-72.9678,0-1.1106-.0225-2.216-.0733-3.3155A52.1791,52.1791,0,0,0,162.5,61.2325,51.191,51.191,0,0,1,147.7722,65.27a25.734,25.734,0,0,0,11.277-14.1864,51.3941,51.3941,0,0,1-16.284,6.2249,25.6683,25.6683,0,0,0-43.704,23.3886A72.8087,72.8087,0,0,1,46.2,53.9025a25.6654,25.6654,0,0,0,7.939,34.2368,25.4572,25.4572,0,0,1-11.6153-3.2081c-.0056.107-.0056.2144-.0056.3269A25.6567,25.6567,0,0,0,63.0931,110.4a25.606,25.606,0,0,1-11.5815.4395A25.6745,25.6745,0,0,0,75.47,128.6523,51.4614,51.4614,0,0,1,43.6178,139.63a52.2064,52.2064,0,0,1-6.1178-.3552,72.6043,72.6043,0,0,0,39.3117,11.5193"/></g></svg>