<svg id="Layer_1" data-name="Layer 1" xmlns="http://www.w3.org/2000/svg" width="200" height="200.0056" viewBox="0 0 200 200.0056"><defs><style>.cls-1{fill:#007ab2;}.cls-2{fill:#fff;}</style></defs><title>social-linkedin</title><path class="cls-1" d="M185.2046,0H14.7521A14.5949,14.5949,0,0,0,0,14.421V185.5735a14.6041,14.6041,0,0,0,14.7521,14.4321H185.2046A14.628,14.628,0,0,0,200,185.5735V14.421A14.6187,14.6187,0,0,0,185.2046,0Z"/><path class="cls-2" d="M29.6392,74.98H59.3278v95.4454H29.6392Zm14.85-47.446a17.2028,17.2028,0,1,1-17.21,17.2016,17.2051,17.2051,0,0,1,17.21-17.2016"/><path class="cls-2" d="M77.9372,74.98h28.4352V88.0286h.4067c3.9551-7.5035,13.64-15.4165,28.0713-15.4165,30.03,0,35.58,19.7628,35.58,45.4685v52.3453H140.7756V124.0107c0-11.0681-.1956-25.3074-15.4193-25.3074-15.436,0-17.79,12.0637-17.79,24.5151v47.2074H77.9372Z"/></svg>