<?xml version="1.0" encoding="utf-8"?>
<!-- Generator: Adobe Illustrator 20.1.0, SVG Export Plug-In . SVG Version: 6.00 Build 0)  -->
<svg version="1.1" id="Layer_1" xmlns="http://www.w3.org/2000/svg" xmlns:xlink="http://www.w3.org/1999/xlink" x="0px" y="0px"
	 viewBox="0 0 1024 174.5" style="enable-background:new 0 0 1024 174.5;" xml:space="preserve">
<style type="text/css">
	.st0{fill:#944862;}
</style>
<title>wordmark-pencil-and-pixel</title>
<path d="M87.1,44.6c0,20.7-13.7,37.9-37.4,37.9H18.6v39.7c0,4-2.3,6.3-6.3,6.3h-6c-4,0-6.3-2.3-6.3-6.3V11.9c0-4,2.3-6.3,6.3-6.3
	h43.4C73.6,5.6,87.1,23.7,87.1,44.6z M67.9,44.4c0-13.9-8.4-23.5-21.9-23.5H18.6v46.7H46C59.7,67.6,67.9,57.9,67.9,44.4L67.9,44.4z"
	/>
<path d="M96.7,84.8c0-25.6,20-46.2,47.4-46.2c22.1,0,42.3,13.2,44.8,41.3c0.5,4.2-1.9,6.5-6.1,6.5h-68.1
	c-0.5,16.3,13,28.3,32.1,28.3c8.5,0.1,16.9-2.5,23.9-7.4c3.3-2.1,6.1-1.9,9,0.9l1.2,1.4c2.8,3,2.8,6.7-1.2,10
	c-10.2,8.3-21.9,10.9-33,10.9C115.7,130.5,96.7,109.9,96.7,84.8z M171,73c-4.6-15.6-16.9-19-26.5-19c-10.2,0-22.8,4-28.3,19H171z"/>
<path d="M208,122.2V46.9c0-4,2.5-6.3,6.5-6.3h5.3c4,0,6.3,2.3,6.3,6.3v10.9c3.9-12.3,15.1-19.1,29.3-19.1
	c19.5,0,33.7,12.6,33.7,40.2v43.4c0,4-2.5,6.3-6.5,6.3h-5.3c-4,0-6.3-2.3-6.3-6.3V79c0-18.1-8.3-24.6-17.6-24.6
	c-9.1,0-27.4,6.1-27.4,32.8v34.9c0,4-2.3,6.3-6.3,6.3h-5.3C210.5,128.5,208,126.2,208,122.2z"/>
<path d="M307.9,85.5c0-25.8,17.7-46.9,49.5-46.9c9.3,0,18.5,2.5,26.5,7.2c3.7,2.1,4.2,5.6,1.8,9l-1.4,1.8c-2.5,3.3-5.1,3.5-9,1.8
	c-5.3-2.5-11.1-3.8-17-3.9c-18.6,0-32.3,12.3-32.3,30c0,17.7,13.7,30.2,32.3,30.2c5.9,0,11.7-1.4,17-3.9c3.9-1.9,6.7-1.6,9,1.8
	l1.2,1.8c2.5,3.3,1.2,7.6-4.4,10.4c-7.3,3.9-15.4,5.9-23.7,5.8C326.4,130.5,307.9,110.6,307.9,85.5z"/>
<path d="M404.7,12.6c-0.2-6.6,5-12.1,11.6-12.3c0.2,0,0.3,0,0.5,0c6.7-0.2,12.3,5.1,12.5,11.8c0,0.2,0,0.3,0,0.5
	c0,6.7-5.4,11.9-12.5,11.9c-6.5,0.2-11.9-4.9-12.1-11.4C404.7,13,404.7,12.8,404.7,12.6z M407.8,122.2V46.9c0-4,2.5-6.3,6.5-6.3h5.3
	c4,0,6.3,2.3,6.3,6.3v75.3c0,4-2.3,6.3-6.3,6.3h-5.3C410.3,128.5,407.8,126.2,407.8,122.2z"/>
<path d="M453.5,122.2V7.9c0-4,2.5-6.3,6.5-6.3h5.3c4,0,6.3,2.3,6.3,6.3v114.3c0,4-2.3,6.3-6.3,6.3H460
	C456,128.5,453.5,126.2,453.5,122.2z"/>
<path class="st0" d="M490.3,130.4c0-25.5,22.8-40.4,42.7-48.6c-10.6-8.1-18.5-21.9-18.5-34.6c0-27.3,26.9-35.9,42.9-35.9
	c22.1,0,38.8,16.3,38.8,34.6c0,17.4-16.5,33.7-33.2,40.7l29.6,33.2L612,93.4c1.2-1.9,3.4-3.1,5.6-2.9h14c3.8,0,5.2,2.5,2.9,5.6
	l-29.1,38.2l10.6,12c5.6,5.6,9.9,7.9,16.5,7.9c4.9,0,9.7-1.3,14-3.6c2.7-1.6,5-1.6,6.3,1.6l3.8,7.4c1.2,2.3,0.6,5.1-1.4,6.8
	c-5.9,4.7-13.5,8.1-23.9,8.1c-13.8,0-22.6-5.9-31.4-14.9l-6.5-7c-9,14.2-28.5,21.9-47.7,21.9C515.6,174.5,490.3,158.4,490.3,130.4z
	 M580.2,137.4L544.9,97c-13.6,4.3-31.4,15.1-31.4,32.5c0,15.1,14.5,26,32.5,26C560.5,155.5,571.4,148.9,580.2,137.4L580.2,137.4z
	 M574.3,47.1c0-8.6-6.8-17.6-18.5-17.6c-9.7,0-18.3,6.5-18.3,18.7c0,8.8,5.2,18.3,13.8,26C567.3,66.1,574.3,55.9,574.3,47.1z"/>
<path d="M738,44.2c0,20.7-13.7,37.9-37.4,37.9h-31.1v39.7c0,4-2.3,6.3-6.3,6.3h-6c-4,0-6.3-2.3-6.3-6.3V11.6c0-4,2.3-6.3,6.3-6.3
	h43.4C724.5,5.3,738,23.4,738,44.2z M718.9,44.1c0-13.9-8.4-23.5-21.9-23.5h-27.4v46.7h27.4C710.6,67.2,718.9,57.6,718.9,44.1z"/>
<path d="M754.5,12.3c-0.2-6.6,5-12.1,11.6-12.3c0.2,0,0.3,0,0.5,0c6.7-0.2,12.3,5.1,12.5,11.8c0,0.2,0,0.3,0,0.5
	c0,6.7-5.4,11.9-12.5,11.9c-6.5,0.2-11.9-4.9-12.1-11.4C754.5,12.6,754.5,12.5,754.5,12.3z M757.7,121.9V46.5c0-4,2.5-6.3,6.5-6.3
	h5.3c4,0,6.3,2.3,6.3,6.3v75.3c0,4-2.3,6.3-6.3,6.3h-5.3C760.1,128.2,757.7,125.9,757.7,121.9L757.7,121.9z"/>
<path d="M797.3,120.3l31.3-37.8l-28.8-34.6c-3.3-4.2-1.8-7.7,3.7-7.7h5.4c3-0.1,5.9,1.2,7.7,3.5L840.5,72l23.9-28.3
	c1.9-2.4,4.9-3.7,7.9-3.5h5.3c5.6,0,7.2,3.5,3.7,7.7l-28.8,34.6l31.4,37.8c3.3,4.2,1.8,7.9-3.7,7.9h-6.3c-3,0.2-5.9-1.2-7.7-3.7
	l-25.6-30.7l-25.5,30.7c-1.9,2.4-4.8,3.8-7.9,3.7h-6.3C795.4,128.2,793.8,124.5,797.3,120.3z"/>
<path d="M894.1,84.5c0-25.6,20-46.2,47.4-46.2c22.1,0,42.3,13.2,44.8,41.3c0.5,4.2-1.9,6.5-6.1,6.5H912c-0.5,16.3,13,28.3,32.1,28.3
	c8.5,0.1,16.9-2.5,23.9-7.4c3.3-2.1,6.1-1.9,9,0.9l1.2,1.4c2.8,3,2.8,6.7-1.2,10c-10.2,8.3-21.9,10.9-33,10.9
	C913,130.1,894.1,109.6,894.1,84.5z M968.4,72.7c-4.6-15.6-16.9-19-26.5-19c-10.2,0-22.8,4-28.3,19H968.4z"/>
<path d="M1005.9,121.9V7.6c0-4,2.5-6.3,6.5-6.3h5.3c4,0,6.3,2.3,6.3,6.3v114.3c0,4-2.3,6.3-6.3,6.3h-5.3
	C1008.4,128.2,1005.9,125.9,1005.9,121.9z"/>
</svg>
